<svg width="24" height="24" viewBox="0 0 24 24" fill="none"
     xmlns="http://www.w3.org/2000/svg">
  <!-- White Circle Background -->
  <circle cx="12" cy="12" r="12" fill="white"/>

  <!-- Google G Logo -->
  <path d="M21.8 12.2332C21.8 11.4432 21.7333 10.8865 21.5883 10.3065H12.004V14.0665H17.6C17.4873 14.9565 16.9113 16.2732 15.6426 17.1532L15.624 17.2732L18.648 19.6005L18.8586 19.6205C20.6893 17.9532 21.8 15.3265 21.8 12.2332Z" fill="#4285F4"/>
  <path d="M12.004 22.0002C14.866 22.0002 17.2793 21.0535 18.8586 19.6202L15.6426 17.1535C14.8313 17.7135 13.7373 18.0802 12.004 18.0802C9.19733 18.0802 6.83199 16.4002 5.98799 13.9602L5.87733 13.9702L2.74266 16.3802L2.70199 16.4869C4.27199 19.7935 7.79266 22.0002 12.004 22.0002Z" fill="#34A853"/>
  <path d="M5.98799 13.9601C5.764 13.3801 5.63333 12.7534 5.63333 12.0001C5.63333 11.2468 5.764 10.6201 5.976 10.0401L5.97067 9.91342L2.796 7.46411L2.70199 7.51342C2.01466 8.86009 1.63333 10.3868 1.63333 12.0001C1.63333 13.6134 2.01466 15.1401 2.70199 16.4868L5.98799 13.9601Z" fill="#FBBC05"/>
  <path d="M12.004 5.92004C14.0907 5.92004 15.4973 6.80671 16.244 7.50004L18.9273 4.94004C17.2667 3.40671 14.8667 2.00004 12.004 2.00004C7.79266 2.00004 4.27199 4.20671 2.70199 7.51337L5.976 10.0401C6.83199 7.60004 9.19733 5.92004 12.004 5.92004Z" fill="#EA4335"/>
</svg>
