<svg width="24" height="24" viewBox="0 0 24 24" fill="none"
     xmlns="http://www.w3.org/2000/svg">
<path d="M22.0001 12.2332C22.0001 11.4432 21.9334 10.8865 21.7884 10.3065H12.2041V14.0665H17.8001C17.6874 14.9565 17.1114 16.2732 15.8427 17.1532L15.8241 17.2732L18.8481 19.6005L19.0587 19.6205C20.8894 17.9532 22.0001 15.3265 22.0001 12.2332Z" fill="#4285F4"/>
<path d="M12.204 22.0002C15.066 22.0002 17.4793 21.0535 19.0587 19.6202L15.8427 17.1535C15.0313 17.7135 13.9373 18.0802 12.204 18.0802C9.39733 18.0802 7.03199 16.4002 6.18799 13.9602L6.07733 13.9702L2.94266 16.3802L2.90199 16.4869C4.47199 19.7935 7.99266 22.0002 12.204 22.0002Z" fill="#34A853"/>
<path d="M6.18799 13.9601C5.964 13.3801 5.83333 12.7534 5.83333 12.0001C5.83333 11.2468 5.964 10.6201 6.176 10.0401L6.17067 9.91342L2.996 7.46411L2.90199 7.51342C2.21466 8.86009 1.83333 10.3868 1.83333 12.0001C1.83333 13.6134 2.21466 15.1401 2.90199 16.4868L6.18799 13.9601Z" fill="#FBBC05"/>
<path d="M12.204 5.92004C14.2907 5.92004 15.6973 6.80671 16.444 7.50004L19.1273 4.94004C17.4667 3.40671 15.0667 2.00004 12.204 2.00004C7.99266 2.00004 4.47199 4.20671 2.90199 7.51337L6.176 10.0401C7.03199 7.60004 9.39733 5.92004 12.204 5.92004Z" fill="#EA4335"/>
</svg>
